<mxfile host="app.diagrams.net" modified="2024-03-18T14:30:51.847Z" agent="Mozilla/5.0 (Windows NT 10.0; Win64; x64) AppleWebKit/537.36 (KHTML, like Gecko) Chrome/122.0.0.0 Safari/537.36 Edg/122.0.0.0" etag="I1KMef8TKmjOFAymiym4" version="24.0.5" type="github">
  <diagram name="Page-1" id="H0OjH0cfv-JAsCDrf4pj">
    <mxGraphModel dx="1683" dy="957" grid="0" gridSize="10" guides="1" tooltips="1" connect="1" arrows="1" fold="1" page="1" pageScale="1" pageWidth="827" pageHeight="1169" math="0" shadow="0">
      <root>
        <mxCell id="0" />
        <mxCell id="1" parent="0" />
        <mxCell id="etN_t8U25IA5rW1pl0ah-14" style="edgeStyle=orthogonalEdgeStyle;rounded=0;orthogonalLoop=1;jettySize=auto;html=1;exitX=0;exitY=1;exitDx=0;exitDy=0;" edge="1" parent="1" source="etN_t8U25IA5rW1pl0ah-2" target="etN_t8U25IA5rW1pl0ah-5">
          <mxGeometry relative="1" as="geometry" />
        </mxCell>
        <mxCell id="etN_t8U25IA5rW1pl0ah-15" style="edgeStyle=orthogonalEdgeStyle;rounded=0;orthogonalLoop=1;jettySize=auto;html=1;exitX=0;exitY=0;exitDx=0;exitDy=0;entryX=0.5;entryY=0;entryDx=0;entryDy=0;" edge="1" parent="1" source="etN_t8U25IA5rW1pl0ah-2" target="etN_t8U25IA5rW1pl0ah-9">
          <mxGeometry relative="1" as="geometry" />
        </mxCell>
        <mxCell id="etN_t8U25IA5rW1pl0ah-16" style="edgeStyle=orthogonalEdgeStyle;rounded=0;orthogonalLoop=1;jettySize=auto;html=1;exitX=0.5;exitY=1;exitDx=0;exitDy=0;entryX=0.5;entryY=0;entryDx=0;entryDy=0;" edge="1" parent="1" source="etN_t8U25IA5rW1pl0ah-2" target="etN_t8U25IA5rW1pl0ah-8">
          <mxGeometry relative="1" as="geometry" />
        </mxCell>
        <mxCell id="etN_t8U25IA5rW1pl0ah-2" value="" style="ellipse;whiteSpace=wrap;html=1;aspect=fixed;" vertex="1" parent="1">
          <mxGeometry x="560" y="120" width="40" height="40" as="geometry" />
        </mxCell>
        <mxCell id="etN_t8U25IA5rW1pl0ah-3" value="&lt;font style=&quot;font-size: 20px;&quot;&gt;master&lt;/font&gt;" style="text;html=1;align=center;verticalAlign=middle;resizable=0;points=[];autosize=1;strokeColor=none;fillColor=none;" vertex="1" parent="1">
          <mxGeometry x="540" y="50" width="80" height="40" as="geometry" />
        </mxCell>
        <mxCell id="etN_t8U25IA5rW1pl0ah-4" value="&lt;font style=&quot;font-size: 20px;&quot;&gt;feature&lt;/font&gt;&lt;div&gt;&lt;font style=&quot;font-size: 20px;&quot;&gt;branches&lt;/font&gt;&lt;/div&gt;" style="text;html=1;align=center;verticalAlign=middle;resizable=0;points=[];autosize=1;strokeColor=none;fillColor=none;" vertex="1" parent="1">
          <mxGeometry x="215" y="43" width="110" height="60" as="geometry" />
        </mxCell>
        <mxCell id="etN_t8U25IA5rW1pl0ah-18" style="edgeStyle=orthogonalEdgeStyle;rounded=0;orthogonalLoop=1;jettySize=auto;html=1;exitX=0.5;exitY=1;exitDx=0;exitDy=0;entryX=0.5;entryY=0;entryDx=0;entryDy=0;" edge="1" parent="1" source="etN_t8U25IA5rW1pl0ah-5" target="etN_t8U25IA5rW1pl0ah-6">
          <mxGeometry relative="1" as="geometry" />
        </mxCell>
        <mxCell id="etN_t8U25IA5rW1pl0ah-5" value="" style="ellipse;whiteSpace=wrap;html=1;aspect=fixed;" vertex="1" parent="1">
          <mxGeometry x="320" y="200" width="40" height="40" as="geometry" />
        </mxCell>
        <mxCell id="etN_t8U25IA5rW1pl0ah-19" style="edgeStyle=orthogonalEdgeStyle;rounded=0;orthogonalLoop=1;jettySize=auto;html=1;exitX=0.5;exitY=1;exitDx=0;exitDy=0;entryX=0.5;entryY=0;entryDx=0;entryDy=0;" edge="1" parent="1" source="etN_t8U25IA5rW1pl0ah-6" target="etN_t8U25IA5rW1pl0ah-7">
          <mxGeometry relative="1" as="geometry" />
        </mxCell>
        <mxCell id="etN_t8U25IA5rW1pl0ah-6" value="" style="ellipse;whiteSpace=wrap;html=1;aspect=fixed;" vertex="1" parent="1">
          <mxGeometry x="320" y="280" width="40" height="40" as="geometry" />
        </mxCell>
        <mxCell id="etN_t8U25IA5rW1pl0ah-24" style="edgeStyle=orthogonalEdgeStyle;rounded=0;orthogonalLoop=1;jettySize=auto;html=1;exitX=0.5;exitY=1;exitDx=0;exitDy=0;entryX=0;entryY=0;entryDx=0;entryDy=0;" edge="1" parent="1" source="etN_t8U25IA5rW1pl0ah-7" target="etN_t8U25IA5rW1pl0ah-8">
          <mxGeometry relative="1" as="geometry" />
        </mxCell>
        <mxCell id="etN_t8U25IA5rW1pl0ah-7" value="" style="ellipse;whiteSpace=wrap;html=1;aspect=fixed;" vertex="1" parent="1">
          <mxGeometry x="320" y="360" width="40" height="40" as="geometry" />
        </mxCell>
        <mxCell id="etN_t8U25IA5rW1pl0ah-17" style="edgeStyle=orthogonalEdgeStyle;rounded=0;orthogonalLoop=1;jettySize=auto;html=1;exitX=0.5;exitY=1;exitDx=0;exitDy=0;entryX=0.5;entryY=0;entryDx=0;entryDy=0;" edge="1" parent="1" source="etN_t8U25IA5rW1pl0ah-8" target="etN_t8U25IA5rW1pl0ah-13">
          <mxGeometry relative="1" as="geometry" />
        </mxCell>
        <mxCell id="etN_t8U25IA5rW1pl0ah-25" style="edgeStyle=orthogonalEdgeStyle;rounded=0;orthogonalLoop=1;jettySize=auto;html=1;exitX=0;exitY=1;exitDx=0;exitDy=0;entryX=1;entryY=0.5;entryDx=0;entryDy=0;" edge="1" parent="1" source="etN_t8U25IA5rW1pl0ah-8" target="etN_t8U25IA5rW1pl0ah-10">
          <mxGeometry relative="1" as="geometry" />
        </mxCell>
        <mxCell id="etN_t8U25IA5rW1pl0ah-8" value="" style="ellipse;whiteSpace=wrap;html=1;aspect=fixed;" vertex="1" parent="1">
          <mxGeometry x="560" y="440" width="40" height="40" as="geometry" />
        </mxCell>
        <mxCell id="etN_t8U25IA5rW1pl0ah-21" style="edgeStyle=orthogonalEdgeStyle;rounded=0;orthogonalLoop=1;jettySize=auto;html=1;exitX=0.5;exitY=1;exitDx=0;exitDy=0;" edge="1" parent="1" source="etN_t8U25IA5rW1pl0ah-9" target="etN_t8U25IA5rW1pl0ah-11">
          <mxGeometry relative="1" as="geometry" />
        </mxCell>
        <mxCell id="etN_t8U25IA5rW1pl0ah-9" value="" style="ellipse;whiteSpace=wrap;html=1;aspect=fixed;" vertex="1" parent="1">
          <mxGeometry x="200" y="160" width="40" height="40" as="geometry" />
        </mxCell>
        <mxCell id="etN_t8U25IA5rW1pl0ah-26" style="edgeStyle=orthogonalEdgeStyle;rounded=0;orthogonalLoop=1;jettySize=auto;html=1;exitX=0.5;exitY=1;exitDx=0;exitDy=0;entryX=0.5;entryY=0;entryDx=0;entryDy=0;" edge="1" parent="1" source="etN_t8U25IA5rW1pl0ah-10" target="etN_t8U25IA5rW1pl0ah-12">
          <mxGeometry relative="1" as="geometry" />
        </mxCell>
        <mxCell id="etN_t8U25IA5rW1pl0ah-10" value="" style="ellipse;whiteSpace=wrap;html=1;aspect=fixed;" vertex="1" parent="1">
          <mxGeometry x="200" y="520" width="40" height="40" as="geometry" />
        </mxCell>
        <mxCell id="etN_t8U25IA5rW1pl0ah-22" style="edgeStyle=orthogonalEdgeStyle;rounded=0;orthogonalLoop=1;jettySize=auto;html=1;exitX=0.5;exitY=1;exitDx=0;exitDy=0;" edge="1" parent="1" source="etN_t8U25IA5rW1pl0ah-11" target="etN_t8U25IA5rW1pl0ah-10">
          <mxGeometry relative="1" as="geometry" />
        </mxCell>
        <mxCell id="etN_t8U25IA5rW1pl0ah-11" value="" style="ellipse;whiteSpace=wrap;html=1;aspect=fixed;" vertex="1" parent="1">
          <mxGeometry x="200" y="320" width="40" height="40" as="geometry" />
        </mxCell>
        <mxCell id="etN_t8U25IA5rW1pl0ah-27" style="edgeStyle=orthogonalEdgeStyle;rounded=0;orthogonalLoop=1;jettySize=auto;html=1;exitX=0.5;exitY=1;exitDx=0;exitDy=0;entryX=0;entryY=0.5;entryDx=0;entryDy=0;" edge="1" parent="1" source="etN_t8U25IA5rW1pl0ah-12" target="etN_t8U25IA5rW1pl0ah-13">
          <mxGeometry relative="1" as="geometry" />
        </mxCell>
        <mxCell id="etN_t8U25IA5rW1pl0ah-12" value="" style="ellipse;whiteSpace=wrap;html=1;aspect=fixed;" vertex="1" parent="1">
          <mxGeometry x="200" y="600" width="40" height="40" as="geometry" />
        </mxCell>
        <mxCell id="etN_t8U25IA5rW1pl0ah-13" value="" style="ellipse;whiteSpace=wrap;html=1;aspect=fixed;" vertex="1" parent="1">
          <mxGeometry x="560" y="680" width="40" height="40" as="geometry" />
        </mxCell>
      </root>
    </mxGraphModel>
  </diagram>
</mxfile>
